<svg width="26" height="30" fill="none" xmlns="http://www.w3.org/2000/svg"><path d="M13.05 0c7.03.028 12.727 5.763 12.7 12.784v.139c-.095 5.017-3.111 9.18-5.624 11.789a30.825 30.825 0 01-2.262 2.13 1.118 1.118 0 11-1.453-1.7 28.888 28.888 0 002.1-1.98c2.236-2.32 4.918-5.989 5-10.28.022-5.894-4.674-10.623-10.47-10.647H13c-5.777 0-10.488 4.683-10.51 10.456a13.679 13.679 0 002.789 7.838c2.015 2.683 5.072 5.525 7.978 7.416a1.117 1.117 0 11-1.222 1.873c-3.112-2.024-6.386-5.068-8.545-7.942a15.91 15.91 0 01-3.24-9.107C.278 5.679 5.993 0 13 0h.05zm-.054 8.075a4.854 4.854 0 014.852 4.846 4.854 4.854 0 01-4.852 4.845 4.854 4.854 0 01-4.852-4.845 1.119 1.119 0 012.239 0 2.615 2.615 0 002.613 2.61 2.615 2.615 0 002.613-2.61 2.616 2.616 0 00-2.613-2.61 1.118 1.118 0 110-2.236z" fill="#446DF6"/></svg>