<svg width="30" height="31" fill="none" xmlns="http://www.w3.org/2000/svg"><path d="M23.247 29.88a1.005 1.005 0 01-.528-.136l-7.707-4.059-6.786 3.654a2.282 2.282 0 01-3.093-.92l-.023-.041a2.46 2.46 0 01-.237-1.5l1.32-7.791L.676 13.5a2.401 2.401 0 010-3.34 2.24 2.24 0 011.32-.677l7.565-1.15 3.364-7.009a2.273 2.273 0 014.131 0l3.38 7.034 7.59 1.162c.613.092 1.164.43 1.524.936.672.966.57 2.271-.243 3.122l-5.492 5.52.765 4.198a1.173 1.173 0 01-.937 1.35 1.137 1.137 0 01-1.32-.92l-.779-4.198c-.13-.77.114-1.555.66-2.112l5.505-5.559-7.59-1.177a2.28 2.28 0 01-1.73-1.35l-3.377-7.004-3.42 7.115a2.276 2.276 0 01-1.73 1.35L2.298 11.94l5.464 5.55c.545.547.79 1.323.66 2.083l-1.32 7.791 6.785-3.639a2.207 2.207 0 012.164 0l7.697 4.06c.47.256.708.797.58 1.318-.117.52-.576.89-1.108.9l.027-.125z" fill="#446DF6"/></svg>