<svg width="30" height="30" viewBox="0 0 30 30" fill="none" xmlns="http://www.w3.org/2000/svg">
<path d="M15.0101 0C17.4367 0 19.8541 0.598599 22.002 1.73105C29.3148 5.58957 32.1272 14.6782 28.2713 21.9936C25.6412 26.9819 20.4631 30 14.993 30C13.9243 30 12.8451 29.885 11.7711 29.6472C11.1661 29.5124 10.7844 28.9125 10.9178 28.3073C11.0512 27.7021 11.6496 27.3228 12.2586 27.4536C17.8449 28.6958 23.6122 26.0146 26.2845 20.9457C29.5632 14.7271 27.1722 6.99819 20.9545 3.71845C19.1289 2.75514 17.0735 2.2464 15.0088 2.2464C7.96543 2.2464 2.24566 7.96679 2.24566 14.998C2.24301 17.0462 2.74234 19.0851 3.68947 20.8968L3.97744 21.4597C4.33014 22.1204 4.40807 22.941 4.17955 23.6837C3.86384 24.5161 3.60096 25.3262 3.38433 26.1322C4.2271 25.8785 5.25613 25.5046 5.99983 25.2337L6.30498 25.124C6.88224 24.9086 7.53083 25.2138 7.74218 25.7979C7.95354 26.3807 7.65104 27.0255 7.06849 27.2356L6.76731 27.3453C5.65506 27.7483 4.13331 28.302 3.1056 28.5319C3.01842 28.5504 2.92463 28.5623 2.83877 28.5597C2.14923 28.5597 1.72916 28.2808 1.49799 28.0456C1.14265 27.6849 0.973568 27.1788 0.993382 26.5419C0.996024 26.4692 1.00527 26.3939 1.02244 26.3212C1.28928 25.1848 1.63669 24.051 2.05676 22.9529C2.08714 22.8459 2.06865 22.6516 1.98278 22.4891L1.69349 21.9275C0.585204 19.8053 -0.00262425 17.4043 8.80703e-06 14.9967C8.80703e-06 6.7273 6.72636 0 14.993 0H15.0101ZM14.9935 13.2142C15.9776 13.2142 16.7768 14.015 16.7768 14.9982C16.7768 15.9813 15.9776 16.7821 14.9935 16.7821C14.0094 16.7821 13.2102 15.9813 13.2102 14.9982C13.2102 14.015 14.0094 13.2142 14.9935 13.2142ZM21.5983 13.2142C22.5824 13.2142 23.3816 14.015 23.3816 14.9982C23.3816 15.9813 22.5824 16.7821 21.5983 16.7821C20.6142 16.7821 19.815 15.9813 19.815 14.9982C19.815 14.015 20.6142 13.2142 21.5983 13.2142ZM8.38853 13.2148C9.37265 13.2148 10.1718 14.0142 10.1718 14.9987C10.1718 15.9818 9.37265 16.7813 8.38853 16.7813C7.40441 16.7813 6.60523 15.9818 6.60523 14.9987C6.60523 14.0142 7.40441 13.2148 8.38853 13.2148Z" fill="#446DF6"/>
</svg>
