<svg width="29" height="28" viewBox="0 0 29 28" fill="none" xmlns="http://www.w3.org/2000/svg">
<path d="M23.6387 16.9911C24.0411 16.9911 24.4434 17.0358 24.8357 17.1235C25.513 17.2741 25.9388 17.9409 25.7846 18.6078C25.6287 19.2747 24.9547 19.6966 24.2791 19.5428C22.5356 19.1489 20.7921 20.5207 20.7921 22.283C20.7921 23.8319 22.0679 25.0928 23.6387 25.0928C25.2079 25.0928 26.4853 23.8319 26.4853 22.283C26.4853 22.1242 26.4719 21.967 26.4468 21.8164C26.3311 21.1396 26.7955 20.5009 27.4795 20.3867C28.1618 20.2742 28.8122 20.7309 28.9262 21.4077C28.9749 21.6923 29 21.9852 29 22.283C29 25.2004 26.5943 27.575 23.6387 27.575C20.6815 27.575 18.2775 25.2004 18.2775 22.283C18.2775 19.364 20.6815 16.9911 23.6387 16.9911ZM12.0674 21.0416C12.7615 21.0416 13.3248 21.5976 13.3248 22.2827C13.3248 22.9678 12.7615 23.5238 12.0674 23.5238H1.75733C1.06328 23.5238 0.5 22.9678 0.5 22.2827C0.5 21.5976 1.06328 21.0416 1.75733 21.0416H12.0674ZM5.86176 0.5C8.819 0.5 11.223 2.87294 11.223 5.79195C11.223 8.70931 8.819 11.0839 5.86176 11.0839C2.90452 11.0839 0.500503 8.70931 0.500503 5.79195C0.500503 5.49409 0.52565 5.2012 0.574266 4.91658C0.688264 4.23978 1.32866 3.78803 2.02103 3.89559C2.70502 4.00977 3.1694 4.64851 3.05372 5.32531C3.02858 5.47589 3.01516 5.63309 3.01516 5.79195C3.01516 7.34082 4.29094 8.60175 5.86176 8.60175C7.43259 8.60175 8.70836 7.34082 8.70836 5.79195C8.70836 4.24143 7.43259 2.98215 5.86176 2.98215C5.64718 2.98215 5.43259 3.00532 5.22807 3.05165C4.54911 3.21217 3.87518 2.79186 3.71759 2.12498C3.56001 1.45811 3.98079 0.789585 4.65808 0.635691C5.05036 0.544679 5.45439 0.5 5.86176 0.5ZM27.7423 4.55038C28.4364 4.55038 28.9997 5.10638 28.9997 5.79145C28.9997 6.47653 28.4364 7.03253 27.7423 7.03253H17.4339C16.7399 7.03253 16.1766 6.47653 16.1766 5.79145C16.1766 5.10638 16.7399 4.55038 17.4339 4.55038H27.7423Z" fill="#446DF6"/>
</svg>
