<svg width="27" height="30" viewBox="0 0 27 30" fill="none" xmlns="http://www.w3.org/2000/svg">
<path d="M19.2801 0C24.1001 0 26.9869 2.92715 27 7.81457V22.1854C27 27.0728 24.1263 30 19.2932 30H15.0087C14.4592 29.9386 14.0434 29.4678 14.0434 28.9073C14.0434 28.3468 14.4592 27.876 15.0087 27.8146H19.2801C22.9637 27.8146 24.8186 25.9205 24.8186 22.1854V7.81457C24.8186 4.07947 22.9637 2.18543 19.2801 2.18543H7.70682C4.02322 2.18543 2.1553 4.07947 2.1553 7.81457V22.1854C2.1553 25.9205 4.02322 27.8146 7.70682 27.8146C8.25628 27.876 8.67218 28.3468 8.67218 28.9073C8.67218 29.4678 8.25628 29.9386 7.70682 30C2.88679 30 0 27.0728 0 22.1854V7.81457C0 2.91391 2.88679 0 7.70682 0H19.2801ZM18.8882 20.2649C19.4798 20.2649 19.9594 20.7512 19.9594 21.351C19.9594 21.9508 19.4798 22.4371 18.8882 22.4371H8.07257C7.48101 22.4371 7.00145 21.9508 7.00145 21.351C7.00145 20.7512 7.48101 20.2649 8.07257 20.2649H18.8882ZM18.8882 13.9073C19.3016 13.8611 19.7046 14.0587 19.9255 14.4159C20.1465 14.7731 20.1465 15.2269 19.9255 15.5841C19.7046 15.9413 19.3016 16.1389 18.8882 16.0927H8.07257C7.52311 16.0313 7.10721 15.5605 7.10721 15C7.10721 14.4395 7.52311 13.9687 8.07257 13.9073H18.8882ZM12.2003 7.56291C12.7498 7.62435 13.1656 8.09511 13.1656 8.65563C13.1656 9.21615 12.7498 9.68691 12.2003 9.74834H8.08563C7.53617 9.68691 7.12028 9.21615 7.12028 8.65563C7.12028 8.09511 7.53617 7.62435 8.08563 7.56291H12.2003Z" fill="#446DF6"/>
</svg>
