<svg width="26" height="30" viewBox="0 0 26 30" fill="none" xmlns="http://www.w3.org/2000/svg">
<path d="M13.05 0C20.0795 0.0276243 25.7775 5.76296 25.7499 12.7835V12.9229C25.655 17.94 22.6387 22.1034 20.1256 24.7119C19.4104 25.4578 18.6491 26.1734 17.8641 26.8416C17.3939 27.2428 16.6879 27.1876 16.2862 26.718C15.8844 26.247 15.9411 25.542 16.4113 25.1408C17.1383 24.5212 17.8457 23.8556 18.5108 23.1623C20.7473 20.8419 23.429 17.1731 23.5107 12.8821C23.5331 6.98763 18.8375 2.25862 13.0407 2.23494H12.9999C7.22293 2.23494 2.51153 6.91792 2.48914 12.6914C2.58792 15.5433 3.55207 18.2544 5.27883 20.5288C7.29406 23.2123 10.3511 26.0537 13.2567 27.9453C13.7757 28.282 13.9219 28.974 13.5834 29.4922C13.37 29.8211 13.0104 30 12.6443 30C12.4348 30 12.2241 29.9421 12.0344 29.8185C8.92336 27.794 5.64895 24.7501 3.49016 21.8758C1.48679 19.2357 0.365908 16.0852 0.25 12.769C0.27766 5.67877 5.99272 0 12.9999 0H13.05ZM12.9959 8.07511C15.6711 8.07511 17.8483 10.2482 17.8483 12.9212C17.8483 15.5929 15.6711 17.766 12.9959 17.766C10.3208 17.766 8.14361 15.5929 8.14361 12.9212C8.14361 12.3029 8.64544 11.8031 9.26318 11.8031C9.88092 11.8031 10.3827 12.3029 10.3827 12.9212C10.3827 14.359 11.555 15.531 12.9959 15.531C14.4369 15.531 15.6092 14.359 15.6092 12.9212C15.6092 11.4821 14.4369 10.3101 12.9959 10.3101C12.3782 10.3101 11.8764 9.81018 11.8764 9.19324C11.8764 8.57498 12.3782 8.07511 12.9959 8.07511Z" fill="#446DF6"/>
</svg>
