<svg width="30" height="31" viewBox="0 0 30 31" fill="none" xmlns="http://www.w3.org/2000/svg">
<path d="M23.2469 29.8791C23.0624 29.8836 22.8794 29.8371 22.7189 29.7441L15.0119 25.6851L8.22587 29.3391C7.11887 29.9391 5.73287 29.5281 5.13287 28.4196C5.12537 28.4061 5.11787 28.3926 5.11037 28.3776C4.87487 27.9141 4.79237 27.3906 4.87337 26.8776L6.19337 19.0866L0.676369 13.5006C-0.225131 12.5706 -0.225131 11.0916 0.676369 10.1601C1.02737 9.79107 1.49237 9.55257 1.99637 9.48357L9.56087 8.33457L12.9254 1.32507C13.4489 0.185067 14.7974 -0.315933 15.9389 0.207567C16.4339 0.434067 16.8299 0.831567 17.0564 1.32507L20.4359 8.35857L28.0259 9.52107C28.6394 9.61257 29.1899 9.95157 29.5499 10.4571C30.2219 11.4231 30.1199 12.7281 29.3069 13.5786L23.8154 19.0986L24.5804 23.2971C24.6869 23.9271 24.2714 24.5286 23.6429 24.6471C23.0249 24.7581 22.4339 24.3471 22.3229 23.7276L21.5444 19.5291C21.4139 18.7596 21.6584 17.9736 22.2044 17.4171L27.7094 11.8581L20.1194 10.6806C19.3499 10.5561 18.6974 10.0461 18.3899 9.33057L15.0119 2.32707L11.5919 9.44157C11.2844 10.1586 10.6319 10.6671 9.86237 10.7916L2.29787 11.9406L7.76237 17.4906C8.30687 18.0381 8.55137 18.8136 8.42237 19.5741L7.10237 27.3651L13.8869 23.7261C14.5589 23.3481 15.3794 23.3481 16.0514 23.7261L23.7479 27.7851C24.2174 28.0416 24.4559 28.5831 24.3284 29.1036C24.2114 29.6241 23.7524 29.9946 23.2199 30.0036L23.2469 29.8791Z" fill="#446DF6"/>
</svg>
