<svg width="28" height="30" viewBox="0 0 28 30" fill="none" xmlns="http://www.w3.org/2000/svg">
<path d="M19.687 0.00138179C20.2551 0.0369162 20.6934 0.523847 20.6783 1.10261V2.65495C25.1913 3.09279 27.5 5.58715 27.5 10.0717V22.4771C27.5 27.4658 24.6565 30 19.0609 30H8.93913C3.34348 30 0.5 27.4658 0.5 22.4771V10.0717C0.5 7.08642 1.51739 4.95029 3.60435 3.70311L3.75074 3.61968C4.05327 3.47848 4.4081 3.49142 4.70302 3.66264C5.04711 3.8624 5.2503 4.24314 5.22754 4.64547C5.20478 5.0478 4.95999 5.40232 4.59565 5.56061C3.21304 6.38322 2.56087 7.81615 2.56087 10.0717V10.4697H21.5913C22.1604 10.4697 22.6217 10.939 22.6217 11.5179C22.6217 12.0968 22.1604 12.566 21.5913 12.566H2.56087V22.4771C2.56087 26.285 4.41304 27.8639 8.93913 27.8904H19.0609C23.5217 27.8904 25.4261 26.2717 25.4261 22.4639V10.0584C25.4261 6.74145 23.9783 5.13604 20.6783 4.75127V5.75963C20.6022 6.29709 20.1395 6.68946 19.6061 6.66898C19.0726 6.6485 18.6404 6.22179 18.6043 5.68002V1.00974L18.6234 0.843835C18.6659 0.626429 18.7754 0.426745 18.9382 0.27512C19.1417 0.0855883 19.4114 -0.0130171 19.687 0.00138179ZM20.2805 21.2955L20.4466 21.3062C20.7314 21.3419 20.9985 21.4725 21.2047 21.6802C21.4521 21.9294 21.5913 22.2689 21.5913 22.6231C21.5913 23.3558 21.0073 23.9499 20.287 23.9499C19.5666 23.9499 18.9826 23.3558 18.9826 22.6231C18.9826 21.8903 19.5666 21.2963 20.287 21.2963L20.2805 21.2955ZM14.0261 21.2963L14.1897 21.3066C14.8328 21.3885 15.3304 21.9467 15.3304 22.6231C15.3304 23.3558 14.7465 23.9499 14.0261 23.9499C13.3057 23.9499 12.7217 23.3558 12.7217 22.6231C12.7217 21.8903 13.3057 21.2963 14.0261 21.2963ZM7.772 21.2955L7.93788 21.3062C8.22268 21.3419 8.48977 21.4725 8.69597 21.6802C8.94341 21.9294 9.08261 22.2689 9.08261 22.6231C9.08261 23.3558 8.49863 23.9499 7.77826 23.9499C7.05789 23.9499 6.47391 23.3558 6.47391 22.6231C6.47391 21.8903 7.05789 21.2963 7.77826 21.2963L7.772 21.2955ZM20.2805 15.9225L20.4466 15.9327C20.7314 15.9684 20.9985 16.099 21.2047 16.3067C21.4521 16.5559 21.5913 16.8954 21.5913 17.2496C21.5913 17.9824 21.0073 18.5764 20.287 18.5764C19.5666 18.5764 18.9826 17.9824 18.9826 17.2496C18.9826 16.5168 19.5666 15.9228 20.287 15.9228L20.2805 15.9225ZM14.0261 15.9228L14.1897 15.9331C14.8328 16.015 15.3304 16.5732 15.3304 17.2496C15.3304 17.9824 14.7465 18.5764 14.0261 18.5764C13.3057 18.5764 12.7217 17.9824 12.7217 17.2496C12.7217 16.5168 13.3057 15.9228 14.0261 15.9228ZM7.772 15.9225L7.93788 15.9327C8.22268 15.9684 8.48977 16.099 8.69597 16.3067C8.94341 16.5559 9.08261 16.8954 9.08261 17.2496C9.08261 17.9824 8.49863 18.5764 7.77826 18.5764C7.05789 18.5764 6.47391 17.9824 6.47391 17.2496C6.47391 16.5168 7.05789 15.9228 7.77826 15.9228L7.772 15.9225ZM8.3587 0.159671C8.88992 0.159671 9.33635 0.565629 9.39565 1.10261V2.54881H15.2913C15.8604 2.54881 16.3217 3.01809 16.3217 3.59697C16.3217 4.17585 15.8604 4.64513 15.2913 4.64513H9.36957V5.69329C9.36959 5.97359 9.25924 6.24223 9.06316 6.43918C8.86709 6.63614 8.60163 6.745 8.32609 6.74145L8.17541 6.7264C7.68446 6.64012 7.31508 6.20168 7.32165 5.68002V1.10261L7.35078 0.945724C7.47117 0.488497 7.88059 0.159671 8.3587 0.159671Z" fill="#446DF6"/>
</svg>
