<svg width="30" height="30" viewBox="0 0 30 30" fill="none" xmlns="http://www.w3.org/2000/svg">
<path d="M23.3296 7.79689C27.0075 7.79689 30 10.9077 30 14.7312V22.3313C30 26.1454 27.015 29.25 23.3446 29.25H11.9237C11.2862 29.25 10.7702 28.7105 10.7702 28.0493C10.7702 27.3851 11.2862 26.8471 11.9237 26.8471H23.3446C25.74 26.8471 27.69 24.8215 27.69 22.3313V14.7312C27.69 12.2316 25.734 10.1982 23.3296 10.1982H21.9331C21.2956 10.1982 20.7796 9.66183 20.7796 8.99756C20.7796 8.33485 21.2956 7.79689 21.9331 7.79689H23.3296ZM8.06692 7.79767C8.70441 7.79767 9.22191 8.33563 9.22191 8.99834C9.22191 9.66105 8.70441 10.199 8.06692 10.199H6.65543C4.25996 10.199 2.30998 12.2261 2.30998 14.7148V22.3149C2.30998 24.8145 4.26596 26.8479 6.67043 26.8479C7.30793 26.8479 7.82542 27.3858 7.82542 28.0485C7.82542 28.7113 7.30793 29.2492 6.67043 29.2492C2.99247 29.2492 0 26.1384 0 22.3149L0 14.7148C0 10.9007 2.98497 7.79767 6.65543 7.79767H8.06692ZM14.9997 0.75C15.6372 0.75 16.1562 1.26496 16.1562 1.89933V19.8319C16.1562 20.2976 15.8742 20.717 15.4407 20.8946C15.0087 21.0722 14.5107 20.9722 14.1807 20.6439L9.81875 16.2824C9.59525 16.0585 9.48276 15.7644 9.48276 15.4704C9.48276 15.1763 9.59525 14.8808 9.82175 14.6569C10.2747 14.2091 11.0052 14.2106 11.4552 14.6599L13.8447 17.0481V1.89933C13.8447 1.26496 14.3622 0.75 14.9997 0.75ZM18.5418 14.6626C18.9903 14.2118 19.7208 14.2073 20.1752 14.6536C20.6297 15.0984 20.6327 15.8253 20.1842 16.2791L19.0923 17.3792C18.6453 17.8299 17.9133 17.8344 17.4603 17.3866C17.2308 17.1627 17.1168 16.8672 17.1168 16.5702C17.1168 16.2791 17.2278 15.9865 17.4513 15.7611L18.5418 14.6626Z" fill="#446DF6"/>
</svg>
