<svg width="28" height="30" fill="none" xmlns="http://www.w3.org/2000/svg"><path d="M19.687.001c.568.036 1.006.523.991 1.102v1.552c4.513.438 6.822 2.932 6.822 7.417v12.405c0 4.989-2.843 7.523-8.44 7.523H8.94C3.342 30 .5 27.466.5 22.477V10.072c0-2.986 1.017-5.122 3.104-6.369l.147-.083c.302-.142.657-.129.952.043.344.2.547.58.525.982a1.06 1.06 0 01-.632.916c-1.383.822-2.035 2.255-2.035 4.51v.399h19.03c.57 0 1.03.469 1.03 1.048a1.04 1.04 0 01-1.03 1.048H2.561v9.911c0 3.808 1.852 5.387 6.378 5.413h10.122c4.46 0 6.365-1.618 6.365-5.426V10.058c0-3.317-1.448-4.922-4.748-5.307V5.76c-.076.537-.538.93-1.072.909a1.052 1.052 0 01-1.002-.989V1.01l.02-.166c.042-.218.151-.417.314-.569a1.02 1.02 0 01.749-.274zm.593 21.294l.167.011c.284.036.552.166.758.374.247.25.386.589.386.943 0 .733-.584 1.327-1.304 1.327-.72 0-1.304-.594-1.304-1.327s.584-1.327 1.304-1.327h-.006zm-6.254.001l.164.01a1.32 1.32 0 011.14 1.317c0 .733-.584 1.327-1.304 1.327-.72 0-1.304-.594-1.304-1.327s.584-1.327 1.304-1.327zm-6.254 0l.166.01c.285.036.552.166.758.374.247.25.387.589.387.943 0 .733-.584 1.327-1.305 1.327-.72 0-1.304-.594-1.304-1.327s.584-1.327 1.304-1.327h-.006zm12.508-5.373l.167.01c.284.035.552.166.758.374.247.249.386.588.386.943 0 .732-.584 1.326-1.304 1.326-.72 0-1.304-.594-1.304-1.326 0-.733.584-1.327 1.304-1.327h-.006zm-6.254 0l.164.01a1.32 1.32 0 011.14 1.317c0 .732-.584 1.326-1.304 1.326-.72 0-1.304-.594-1.304-1.326 0-.733.584-1.327 1.304-1.327zm-6.254 0l.166.01c.285.035.552.166.758.374.247.249.387.588.387.943 0 .732-.584 1.326-1.305 1.326-.72 0-1.304-.594-1.304-1.326 0-.733.584-1.327 1.304-1.327h-.006zM8.359.16c.53 0 .977.406 1.037.943v1.446h5.895c.57 0 1.03.47 1.03 1.048a1.04 1.04 0 01-1.03 1.048H9.37v1.048c0 .28-.11.55-.307.746a1.021 1.021 0 01-.737.302l-.15-.015a1.044 1.044 0 01-.854-1.046V1.103L7.35.946C7.47.488 7.88.16 8.359.16z" fill="#446DF6"/></svg>