<svg width="30" height="30" fill="none" xmlns="http://www.w3.org/2000/svg"><path d="M23.33 7.797c3.678 0 6.67 3.11 6.67 6.934v7.6c0 3.814-2.985 6.919-6.655 6.919H11.924c-.638 0-1.154-.54-1.154-1.2 0-.665.516-1.203 1.154-1.203h11.42c2.396 0 4.346-2.026 4.346-4.516v-7.6c0-2.5-1.956-4.533-4.36-4.533h-1.397c-.637 0-1.153-.536-1.153-1.2 0-.663.516-1.201 1.153-1.201h1.397zm-15.263 0c.637 0 1.155.539 1.155 1.201 0 .663-.518 1.201-1.155 1.201H6.655c-2.395 0-4.345 2.027-4.345 4.516v7.6c0 2.5 1.956 4.533 4.36 4.533.638 0 1.155.538 1.155 1.2 0 .663-.517 1.201-1.155 1.201-3.678 0-6.67-3.11-6.67-6.934v-7.6C0 10.9 2.985 7.798 6.655 7.798h1.412zM15 .75c.637 0 1.156.515 1.156 1.15v17.932c0 .466-.282.885-.715 1.063-.432.177-.93.077-1.26-.251l-4.362-4.362a1.147 1.147 0 01.003-1.625 1.16 1.16 0 011.633.003l2.39 2.388V1.9c0-.634.517-1.149 1.155-1.149zm3.542 13.913a1.16 1.16 0 011.633-.01c.455.445.458 1.172.01 1.626l-1.093 1.1a1.157 1.157 0 01-1.975-.809c0-.29.11-.584.334-.809l1.09-1.098z" fill="#446DF6"/></svg>