<svg width="27" height="30" fill="none" xmlns="http://www.w3.org/2000/svg"><path d="M19.28 0C24.1 0 26.987 2.927 27 7.815v14.37C27 27.073 24.126 30 19.293 30H15.01a1.094 1.094 0 01-.966-1.093c0-.56.416-1.031.966-1.092h4.271c3.684 0 5.539-1.895 5.539-5.63V7.815c0-3.736-1.855-5.63-5.539-5.63H7.707c-3.684 0-5.552 1.894-5.552 5.63v14.37c0 3.736 1.868 5.63 5.552 5.63.55.061.965.532.965 1.092S8.256 29.94 7.707 30C2.887 30 0 27.073 0 22.185V7.815C0 2.914 2.887 0 7.707 0H19.28zm-.392 20.265c.592 0 1.071.486 1.071 1.086 0 .6-.48 1.086-1.07 1.086H8.072A1.079 1.079 0 017 21.351c0-.6.48-1.086 1.072-1.086h10.815zm0-6.358a1.08 1.08 0 011.037.509c.221.357.221.81 0 1.168a1.08 1.08 0 01-1.037.509H8.073A1.094 1.094 0 017.107 15c0-.56.416-1.031.966-1.093h10.815zM12.2 7.563c.55.061.966.532.966 1.093 0 .56-.416 1.03-.966 1.092H8.086a1.094 1.094 0 01-.966-1.092c0-.56.416-1.032.966-1.093H12.2z" fill="#446DF6"/></svg>